<mxfile host="app.diagrams.net" modified="2024-01-26T06:44:57.182Z" agent="Mozilla/5.0 (Windows NT 10.0; Win64; x64) AppleWebKit/537.36 (KHTML, like Gecko) Chrome/120.0.0.0 Safari/537.36" etag="ge-afe6f3-AHXygos15M" version="23.0.2" type="github">
  <diagram name="Seite-1" id="uoB5s_NOn5Kz51gLZ3H2">
    <mxGraphModel dx="935" dy="700" grid="1" gridSize="10" guides="1" tooltips="1" connect="1" arrows="1" fold="1" page="1" pageScale="1" pageWidth="827" pageHeight="1169" math="0" shadow="0">
      <root>
        <mxCell id="0" />
        <mxCell id="1" parent="0" />
        <mxCell id="KBUpss7MyCprIlvvS2ba-1" value="STM32" style="whiteSpace=wrap;html=1;aspect=fixed;" vertex="1" parent="1">
          <mxGeometry x="265" y="695" width="150" height="150" as="geometry" />
        </mxCell>
        <mxCell id="KBUpss7MyCprIlvvS2ba-2" value="Watch" style="rounded=0;whiteSpace=wrap;html=1;" vertex="1" parent="1">
          <mxGeometry x="295" y="140" width="90" height="50" as="geometry" />
        </mxCell>
        <mxCell id="KBUpss7MyCprIlvvS2ba-3" value="SWD" style="rounded=0;whiteSpace=wrap;html=1;" vertex="1" parent="1">
          <mxGeometry x="670" y="740" width="120" height="60" as="geometry" />
        </mxCell>
        <mxCell id="KBUpss7MyCprIlvvS2ba-4" value="USB - SWD" style="rounded=0;whiteSpace=wrap;html=1;" vertex="1" parent="1">
          <mxGeometry x="50" y="740" width="110" height="50" as="geometry" />
        </mxCell>
        <mxCell id="KBUpss7MyCprIlvvS2ba-5" value="" style="endArrow=classic;startArrow=classic;html=1;rounded=0;exitX=0.484;exitY=0;exitDx=0;exitDy=0;edgeStyle=orthogonalEdgeStyle;entryX=0.5;entryY=1;entryDx=0;entryDy=0;exitPerimeter=0;" edge="1" parent="1" source="KBUpss7MyCprIlvvS2ba-1">
          <mxGeometry width="50" height="50" relative="1" as="geometry">
            <mxPoint x="358.75" y="655" as="sourcePoint" />
            <mxPoint x="321.25" y="290" as="targetPoint" />
          </mxGeometry>
        </mxCell>
        <mxCell id="KBUpss7MyCprIlvvS2ba-6" value="SWD" style="edgeLabel;html=1;align=center;verticalAlign=middle;resizable=0;points=[];" connectable="0" vertex="1" parent="KBUpss7MyCprIlvvS2ba-5">
          <mxGeometry x="0.4354" y="2" relative="1" as="geometry">
            <mxPoint as="offset" />
          </mxGeometry>
        </mxCell>
        <mxCell id="KBUpss7MyCprIlvvS2ba-7" value="" style="endArrow=classic;startArrow=classic;html=1;rounded=0;entryX=0;entryY=0.5;entryDx=0;entryDy=0;exitX=1;exitY=0.5;exitDx=0;exitDy=0;edgeStyle=orthogonalEdgeStyle;" edge="1" parent="1" source="KBUpss7MyCprIlvvS2ba-1" target="KBUpss7MyCprIlvvS2ba-3">
          <mxGeometry width="50" height="50" relative="1" as="geometry">
            <mxPoint x="400" y="680" as="sourcePoint" />
            <mxPoint x="450" y="630" as="targetPoint" />
          </mxGeometry>
        </mxCell>
        <mxCell id="KBUpss7MyCprIlvvS2ba-8" value="USB - Data" style="rounded=0;whiteSpace=wrap;html=1;" vertex="1" parent="1">
          <mxGeometry x="670" y="580" width="110" height="50" as="geometry" />
        </mxCell>
        <mxCell id="KBUpss7MyCprIlvvS2ba-9" value="USB Switch" style="rounded=0;whiteSpace=wrap;html=1;" vertex="1" parent="1">
          <mxGeometry x="280" y="270" width="120" height="60" as="geometry" />
        </mxCell>
        <mxCell id="KBUpss7MyCprIlvvS2ba-10" value="" style="endArrow=classic;startArrow=classic;html=1;rounded=0;exitX=0.5;exitY=0;exitDx=0;exitDy=0;edgeStyle=orthogonalEdgeStyle;" edge="1" parent="1" source="KBUpss7MyCprIlvvS2ba-9" target="KBUpss7MyCprIlvvS2ba-2">
          <mxGeometry width="50" height="50" relative="1" as="geometry">
            <mxPoint x="400" y="680" as="sourcePoint" />
            <mxPoint x="450" y="630" as="targetPoint" />
            <Array as="points" />
          </mxGeometry>
        </mxCell>
        <mxCell id="KBUpss7MyCprIlvvS2ba-11" value="USB / SWD" style="edgeLabel;html=1;align=center;verticalAlign=middle;resizable=0;points=[];" connectable="0" vertex="1" parent="KBUpss7MyCprIlvvS2ba-10">
          <mxGeometry x="-0.1" y="3" relative="1" as="geometry">
            <mxPoint as="offset" />
          </mxGeometry>
        </mxCell>
        <mxCell id="KBUpss7MyCprIlvvS2ba-12" value="" style="endArrow=classic;startArrow=classic;html=1;rounded=0;exitX=1;exitY=0.5;exitDx=0;exitDy=0;edgeStyle=orthogonalEdgeStyle;entryX=0;entryY=0.5;entryDx=0;entryDy=0;" edge="1" parent="1" target="KBUpss7MyCprIlvvS2ba-8">
          <mxGeometry width="50" height="50" relative="1" as="geometry">
            <mxPoint x="400" y="320.02999999999986" as="sourcePoint" />
            <mxPoint x="670" y="600" as="targetPoint" />
            <Array as="points">
              <mxPoint x="480" y="321" />
              <mxPoint x="480" y="605" />
            </Array>
          </mxGeometry>
        </mxCell>
        <mxCell id="KBUpss7MyCprIlvvS2ba-13" value="USB" style="edgeLabel;html=1;align=center;verticalAlign=middle;resizable=0;points=[];" connectable="0" vertex="1" parent="KBUpss7MyCprIlvvS2ba-12">
          <mxGeometry x="-0.0643" y="2" relative="1" as="geometry">
            <mxPoint as="offset" />
          </mxGeometry>
        </mxCell>
        <mxCell id="KBUpss7MyCprIlvvS2ba-14" value="" style="edgeStyle=orthogonalEdgeStyle;rounded=0;orthogonalLoop=1;jettySize=auto;html=1;entryX=0;entryY=0.5;entryDx=0;entryDy=0;" edge="1" parent="1" source="KBUpss7MyCprIlvvS2ba-15" target="KBUpss7MyCprIlvvS2ba-2">
          <mxGeometry relative="1" as="geometry">
            <mxPoint x="210" y="299.9999999999999" as="targetPoint" />
            <Array as="points">
              <mxPoint x="170" y="300" />
              <mxPoint x="170" y="165" />
            </Array>
          </mxGeometry>
        </mxCell>
        <mxCell id="KBUpss7MyCprIlvvS2ba-15" value="Switch - Charging" style="rounded=0;whiteSpace=wrap;html=1;" vertex="1" parent="1">
          <mxGeometry x="40" y="270" width="90" height="60" as="geometry" />
        </mxCell>
        <mxCell id="KBUpss7MyCprIlvvS2ba-16" value="" style="endArrow=classic;startArrow=classic;html=1;rounded=0;exitX=1;exitY=0.5;exitDx=0;exitDy=0;edgeStyle=orthogonalEdgeStyle;entryX=-0.009;entryY=0.471;entryDx=0;entryDy=0;entryPerimeter=0;" edge="1" parent="1" source="KBUpss7MyCprIlvvS2ba-4" target="KBUpss7MyCprIlvvS2ba-1">
          <mxGeometry width="50" height="50" relative="1" as="geometry">
            <mxPoint x="400" y="680" as="sourcePoint" />
            <mxPoint x="260" y="765" as="targetPoint" />
          </mxGeometry>
        </mxCell>
        <mxCell id="KBUpss7MyCprIlvvS2ba-17" value="USB" style="edgeLabel;html=1;align=center;verticalAlign=middle;resizable=0;points=[];" connectable="0" vertex="1" parent="KBUpss7MyCprIlvvS2ba-16">
          <mxGeometry x="0.084" y="-3" relative="1" as="geometry">
            <mxPoint as="offset" />
          </mxGeometry>
        </mxCell>
        <mxCell id="KBUpss7MyCprIlvvS2ba-18" value="" style="edgeStyle=orthogonalEdgeStyle;rounded=0;orthogonalLoop=1;jettySize=auto;html=1;entryX=1;entryY=0.5;entryDx=0;entryDy=0;" edge="1" parent="1" source="KBUpss7MyCprIlvvS2ba-20" target="KBUpss7MyCprIlvvS2ba-2">
          <mxGeometry relative="1" as="geometry">
            <mxPoint x="560" y="164.9999999999999" as="targetPoint" />
          </mxGeometry>
        </mxCell>
        <mxCell id="KBUpss7MyCprIlvvS2ba-19" value="SEL" style="edgeLabel;html=1;align=center;verticalAlign=middle;resizable=0;points=[];" connectable="0" vertex="1" parent="KBUpss7MyCprIlvvS2ba-18">
          <mxGeometry x="-0.0822" y="2" relative="1" as="geometry">
            <mxPoint as="offset" />
          </mxGeometry>
        </mxCell>
        <mxCell id="KBUpss7MyCprIlvvS2ba-20" value="Switch - SEL USB" style="rounded=0;whiteSpace=wrap;html=1;" vertex="1" parent="1">
          <mxGeometry x="630" y="140" width="110" height="50" as="geometry" />
        </mxCell>
        <mxCell id="KBUpss7MyCprIlvvS2ba-21" value="Power - 1V8" style="rounded=0;whiteSpace=wrap;html=1;" vertex="1" parent="1">
          <mxGeometry x="120" y="540" width="80" height="40" as="geometry" />
        </mxCell>
        <mxCell id="KBUpss7MyCprIlvvS2ba-22" value="Power - 3V3" style="rounded=0;whiteSpace=wrap;html=1;" vertex="1" parent="1">
          <mxGeometry x="215" y="540" width="80" height="40" as="geometry" />
        </mxCell>
        <mxCell id="KBUpss7MyCprIlvvS2ba-23" value="" style="endArrow=classic;html=1;rounded=0;entryX=0.425;entryY=1.05;entryDx=0;entryDy=0;entryPerimeter=0;edgeStyle=orthogonalEdgeStyle;exitX=0.827;exitY=0.02;exitDx=0;exitDy=0;exitPerimeter=0;" edge="1" parent="1" source="KBUpss7MyCprIlvvS2ba-4" target="KBUpss7MyCprIlvvS2ba-22">
          <mxGeometry width="50" height="50" relative="1" as="geometry">
            <mxPoint x="140" y="710" as="sourcePoint" />
            <mxPoint x="450" y="530" as="targetPoint" />
            <Array as="points">
              <mxPoint x="140" y="741" />
              <mxPoint x="140" y="660" />
              <mxPoint x="249" y="660" />
            </Array>
          </mxGeometry>
        </mxCell>
        <mxCell id="KBUpss7MyCprIlvvS2ba-24" value="5V0" style="edgeLabel;html=1;align=center;verticalAlign=middle;resizable=0;points=[];" connectable="0" vertex="1" parent="KBUpss7MyCprIlvvS2ba-23">
          <mxGeometry x="-0.6231" y="-1" relative="1" as="geometry">
            <mxPoint as="offset" />
          </mxGeometry>
        </mxCell>
        <mxCell id="KBUpss7MyCprIlvvS2ba-25" value="" style="endArrow=classic;html=1;rounded=0;entryX=0.5;entryY=1;entryDx=0;entryDy=0;edgeStyle=orthogonalEdgeStyle;" edge="1" parent="1" target="KBUpss7MyCprIlvvS2ba-21">
          <mxGeometry width="50" height="50" relative="1" as="geometry">
            <mxPoint x="120" y="740" as="sourcePoint" />
            <mxPoint x="450" y="530" as="targetPoint" />
            <Array as="points">
              <mxPoint x="120" y="740" />
              <mxPoint x="120" y="630" />
              <mxPoint x="160" y="630" />
            </Array>
          </mxGeometry>
        </mxCell>
        <mxCell id="KBUpss7MyCprIlvvS2ba-26" value="5V0" style="edgeLabel;html=1;align=center;verticalAlign=middle;resizable=0;points=[];" connectable="0" vertex="1" parent="KBUpss7MyCprIlvvS2ba-25">
          <mxGeometry x="-0.2093" y="-2" relative="1" as="geometry">
            <mxPoint as="offset" />
          </mxGeometry>
        </mxCell>
        <mxCell id="KBUpss7MyCprIlvvS2ba-27" value="" style="endArrow=classic;html=1;rounded=0;edgeStyle=orthogonalEdgeStyle;entryX=0.5;entryY=1;entryDx=0;entryDy=0;exitX=0.321;exitY=0.017;exitDx=0;exitDy=0;exitPerimeter=0;" edge="1" parent="1" source="KBUpss7MyCprIlvvS2ba-4" target="KBUpss7MyCprIlvvS2ba-15">
          <mxGeometry width="50" height="50" relative="1" as="geometry">
            <mxPoint x="85" y="610" as="sourcePoint" />
            <mxPoint x="77" y="350" as="targetPoint" />
            <Array as="points">
              <mxPoint x="85" y="610" />
              <mxPoint x="85" y="610" />
            </Array>
          </mxGeometry>
        </mxCell>
        <mxCell id="KBUpss7MyCprIlvvS2ba-28" value="5V0" style="edgeLabel;html=1;align=center;verticalAlign=middle;resizable=0;points=[];" connectable="0" vertex="1" parent="KBUpss7MyCprIlvvS2ba-27">
          <mxGeometry x="0.0011" y="3" relative="1" as="geometry">
            <mxPoint as="offset" />
          </mxGeometry>
        </mxCell>
        <mxCell id="KBUpss7MyCprIlvvS2ba-29" value="" style="endArrow=classic;html=1;rounded=0;entryX=1;entryY=0.25;entryDx=0;entryDy=0;edgeStyle=orthogonalEdgeStyle;exitX=0.54;exitY=1.004;exitDx=0;exitDy=0;exitPerimeter=0;" edge="1" parent="1" source="KBUpss7MyCprIlvvS2ba-20" target="KBUpss7MyCprIlvvS2ba-9">
          <mxGeometry width="50" height="50" relative="1" as="geometry">
            <mxPoint x="690" y="200" as="sourcePoint" />
            <mxPoint x="380" y="390" as="targetPoint" />
            <Array as="points">
              <mxPoint x="689" y="285" />
            </Array>
          </mxGeometry>
        </mxCell>
        <mxCell id="KBUpss7MyCprIlvvS2ba-30" value="SEL" style="edgeLabel;html=1;align=center;verticalAlign=middle;resizable=0;points=[];" connectable="0" vertex="1" parent="KBUpss7MyCprIlvvS2ba-29">
          <mxGeometry x="0.1202" relative="1" as="geometry">
            <mxPoint as="offset" />
          </mxGeometry>
        </mxCell>
        <mxCell id="KBUpss7MyCprIlvvS2ba-31" value="SEL:&lt;br&gt;- Default: LOW&lt;br&gt;- Watch Rev 1 to 4:&amp;nbsp; Reset of the Watch pulled to GND&lt;br&gt;- Watch Rev &amp;gt;4: SWD selected" style="text;html=1;align=left;verticalAlign=middle;resizable=0;points=[];autosize=1;strokeColor=none;fillColor=none;" vertex="1" parent="1">
          <mxGeometry x="331" y="40" width="310" height="70" as="geometry" />
        </mxCell>
        <mxCell id="KBUpss7MyCprIlvvS2ba-32" value="Switch is pulling SEL to HIGH" style="text;html=1;align=center;verticalAlign=middle;resizable=0;points=[];autosize=1;strokeColor=none;fillColor=none;" vertex="1" parent="1">
          <mxGeometry x="751" y="150" width="180" height="30" as="geometry" />
        </mxCell>
        <mxCell id="KBUpss7MyCprIlvvS2ba-33" value="SEL = LOW -&amp;gt; SWD&lt;br&gt;SEL = HIGH -&amp;gt; USB" style="text;html=1;align=center;verticalAlign=middle;resizable=0;points=[];autosize=1;strokeColor=none;fillColor=none;" vertex="1" parent="1">
          <mxGeometry x="501" y="230" width="130" height="40" as="geometry" />
        </mxCell>
      </root>
    </mxGraphModel>
  </diagram>
</mxfile>
